<svg aria-hidden="true" style="position:absolute;width:0;height:0;overflow:hidden" xmlns="http://www.w3.org/2000/svg"><defs><symbol id="cross-menu" viewBox="0 0 32 32"><path d="M31.988 3.206 28.765 0 15.994 12.771 3.205 0-.001 3.206 12.77 15.995-.001 28.766l3.206 3.223 12.789-12.771 12.771 12.771 3.223-3.223-12.771-12.771L31.988 3.206z"/></symbol><symbol id="list-menu" viewBox="0 0 32 32"><path d="M12 2h20v4H12V2zm0 12h20v4H12v-4zm0 12h20v4H12v-4zM0 4a4 4 0 1 1 8 0 4 4 0 0 1-8 0zm0 12a4 4 0 1 1 8 0 4 4 0 0 1-8 0zm0 12a4 4 0 1 1 8 0 4 4 0 0 1-8 0z"/></symbol></defs></svg>